<mxfile host="app.diagrams.net" modified="2024-03-25T20:18:19.433Z" agent="Mozilla/5.0 (Windows NT 10.0; Win64; x64) AppleWebKit/537.36 (KHTML, like Gecko) Chrome/123.0.0.0 Safari/537.36" etag="RDys7bPtcTn1IbtmBJIo" version="24.0.9" type="github">
  <diagram name="Page-1" id="FrSSczX9oL7FwMER2Ljg">
    <mxGraphModel dx="1216" dy="655" grid="1" gridSize="10" guides="1" tooltips="1" connect="1" arrows="1" fold="1" page="1" pageScale="1" pageWidth="850" pageHeight="1100" math="0" shadow="0">
      <root>
        <mxCell id="0" />
        <mxCell id="1" parent="0" />
        <mxCell id="1jXaig8G1i0ZbSuVBIDo-1" value="" style="shape=image;html=1;verticalAlign=top;verticalLabelPosition=bottom;labelBackgroundColor=#ffffff;imageAspect=0;aspect=fixed;image=https://cdn4.iconfinder.com/data/icons/48-bubbles/48/31.ID-Horizontal-128.png" vertex="1" parent="1">
          <mxGeometry x="460" y="370" width="28" height="28" as="geometry" />
        </mxCell>
      </root>
    </mxGraphModel>
  </diagram>
</mxfile>
